<?xml version="1.0" encoding="UTF-8" standalone="no"?>
<!-- Created with Inkscape (http://www.inkscape.org/) -->

<svg
   width="48.277321mm"
   height="50.596119mm"
   viewBox="0 0 48.277321 50.596119"
   version="1.1"
   id="svg1"
   inkscape:version="1.3.2 (091e20e, 2023-11-25, custom)"
   sodipodi:docname="Beaver_logo.svg"
   xmlns:inkscape="http://www.inkscape.org/namespaces/inkscape"
   xmlns:sodipodi="http://sodipodi.sourceforge.net/DTD/sodipodi-0.dtd"
   xmlns="http://www.w3.org/2000/svg"
   xmlns:svg="http://www.w3.org/2000/svg">
  <sodipodi:namedview
     id="namedview1"
     pagecolor="#ffffff"
     bordercolor="#000000"
     borderopacity="0.25"
     inkscape:showpageshadow="2"
     inkscape:pageopacity="0.0"
     inkscape:pagecheckerboard="0"
     inkscape:deskcolor="#d1d1d1"
     inkscape:document-units="mm"
     inkscape:zoom="2.1089995"
     inkscape:cx="55.71362"
     inkscape:cy="83.68897"
     inkscape:window-width="1920"
     inkscape:window-height="1051"
     inkscape:window-x="-9"
     inkscape:window-y="-9"
     inkscape:window-maximized="1"
     inkscape:current-layer="layer1" />
  <defs
     id="defs1" />
  <g
     inkscape:label="Capa 1"
     inkscape:groupmode="layer"
     id="layer1"
     transform="translate(-80.861341,-123.20194)">
    <g
       id="g7"
       transform="matrix(3.2352075,0,0,3.2352075,-424.35914,45.077568)"
       inkscape:export-filename="g7.png"
       inkscape:export-xdpi="1191.4901"
       inkscape:export-ydpi="1191.4901">
      <path
         style="font-weight:600;font-size:11.6182px;line-height:1.25;font-family:Montserrat;-inkscape-font-specification:'Montserrat Semi-Bold';opacity:0.99;fill:#003d3a;fill-opacity:1;stroke-width:0.552382;stroke-linecap:round;stroke-linejoin:round"
         d="m 159.18994,36.744361 v -1.270563 -0.200806 h 0.70522 c 0.1807,0 0.3182,0.03496 0.41283,0.105086 0.0946,0.06876 0.14186,0.161057 0.14186,0.277429 0,0.07858 -0.0182,0.14575 -0.0559,0.20172 -0.0374,0.05459 -0.0875,0.09732 -0.15055,0.128159 -0.0617,0.02924 -0.12907,0.04409 -0.20217,0.04409 l 0.0385,-0.07585 c 0.0845,0 0.1606,0.01599 0.228,0.04638 0.0674,0.02924 0.12039,0.07287 0.159,0.130216 0.0402,0.05734 0.0601,0.128845 0.0601,0.214285 0,0.126104 -0.0494,0.224108 -0.14826,0.294264 -0.0989,0.07013 -0.24584,0.105086 -0.44077,0.105086 z m 0.2795,-0.214285 h 0.45151 c 0.10463,0 0.18481,-0.01599 0.24083,-0.05048 0.0559,-0.03358 0.0839,-0.08773 0.0839,-0.161742 0,-0.07287 -0.0279,-0.126103 -0.0839,-0.159686 -0.0559,-0.03496 -0.13616,-0.05254 -0.24083,-0.05254 h -0.473 V 35.8934 h 0.4171 c 0.0976,0 0.17202,-0.01599 0.22365,-0.05049 0.053,-0.03358 0.0795,-0.08407 0.0795,-0.151234 0,-0.06876 -0.0265,-0.119706 -0.0795,-0.153517 -0.0517,-0.03358 -0.1261,-0.05048 -0.22365,-0.05048 h -0.39561 z m 1.35672,0.214285 v -1.4713 h 1.09867 v 0.229111 h -0.81919 v 1.013078 h 0.84931 v 0.229111 z m 0.258,-0.634767 V 35.8848 h 0.74822 v 0.224794 z m 0.9697,0.634767 0.67726,-1.4713 h 0.27523 l 0.67941,1.4713 h -0.29244 l -0.58263,-1.326281 h 0.1117 l -0.5805,1.326281 z m 0.31174,-0.340503 0.0754,-0.214513 h 0.81273 l 0.0754,0.214513 z m 1.87703,0.340503 -0.65794,-1.4713 h 0.30318 l 0.58695,1.330484 h -0.17408 l 0.59342,-1.330484 h 0.2795 l -0.65576,1.4713 z m 1.09008,0 v -1.4713 h 1.0987 v 0.229111 h -0.81919 v 1.013078 h 0.84928 v 0.229111 z m 0.25801,-0.634767 V 35.8848 h 0.74824 v 0.224794 z m 1.18257,0.634767 v -1.4713 h 0.61706 c 0.20057,0 0.35763,0.04637 0.47085,0.138668 0.11469,0.09252 0.17203,0.220681 0.17203,0.384639 0,0.107827 -0.0258,0.201034 -0.0774,0.279529 -0.0517,0.07721 -0.12542,0.136612 -0.22136,0.178647 -0.0946,0.04066 -0.20858,0.06099 -0.34186,0.06099 h -0.46443 l 0.12473,-0.124048 v 0.552801 z m 0.9847,0 -0.38055,-0.533885 h 0.29888 l 0.3827,0.533885 z m -0.70522,-0.523376 -0.12473,-0.130216 h 0.45152 c 0.12337,0 0.21566,-0.02581 0.27736,-0.07767 0.0631,-0.05186 0.0946,-0.124048 0.0946,-0.216569 0,-0.09389 -0.0315,-0.166083 -0.0946,-0.21657 -0.0616,-0.05048 -0.1542,-0.07585 -0.27736,-0.07585 h -0.45152 l 0.12473,-0.134557 z"
         id="path3-1-7-8-3"
         aria-label="BEAVER"
         sodipodi:nodetypes="cccscsccccccsssccssscsccscscscccccccccccccccccccccccccccccccccccccccccccccccccccccccscsccscccccccccccscscsccc" />
      <path
         id="path27-6-2-2-7"
         style="fill:#003d3a;fill-opacity:1;stroke:none;stroke-width:0.154207;stroke-linecap:round;stroke-linejoin:round;stroke-dasharray:none;stroke-opacity:1"
         d="m 163.62449,27.191218 c -1.93707,-7.2e-5 -3.5075,1.534845 -3.50774,3.428472 -7e-5,1.893844 1.57043,3.429122 3.50774,3.42905 1.93729,7.2e-5 3.50781,-1.535206 3.50772,-3.42905 -2.4e-4,-1.893627 -1.57067,-3.428544 -3.50772,-3.428472 z m -0.007,0.519049 h 5.8e-4 c 0.0512,0 0.2992,0.0409 0.4744,0.08612 0.5574,0.143859 1.19639,0.465305 1.31487,0.68836 0.002,0.0048 0.005,0.0096 0.005,0.01443 0.0241,0.15685 0.0322,0.431674 -0.0404,0.501006 -0.0216,0.01925 -0.11716,0.153241 -0.12847,0.170562 -0.0294,0.04475 -0.0652,0.225171 -0.0743,0.228058 -0.0168,0.0048 -0.11644,0.01924 -0.12678,0.0072 -0.0217,-0.02406 0.0168,-0.206888 0.005,-0.198949 -0.089,0.05076 -0.24538,0.249516 -0.46191,0.28221 -0.0392,0.0048 -0.1595,0.0048 -0.26545,-0.01203 -0.005,0.04138 -0.0144,0.08131 -0.0192,0.116916 -0.005,0.02718 -0.007,0.05028 -0.012,0.07025 0.12654,0.08973 0.36153,0.05605 0.3863,-0.03368 0.005,-0.01925 0.0544,-0.04354 0.0933,-0.07794 0.0897,-0.07915 0.15421,-0.0243 0.19053,-0.0024 0.0618,0.03729 0.11812,0.144581 0.0832,0.246726 -0.012,0.03536 -0.13015,-0.0072 -0.21964,0.01443 -0.25618,0.05966 -0.39746,0.124373 -0.5393,0.189086 -0.1518,0.06928 -0.28794,0.198468 -0.36903,0.236718 l -0.13039,0.121006 c -0.27916,-0.100798 -0.54946,-0.194379 -0.81548,0.0024 0.21916,0.03296 0.44325,0.02622 0.61251,0.234553 0.005,0.0072 -0.0539,0.120284 -0.12557,0.247881 -0.0717,0.1275 -0.17129,0.336457 -0.22084,0.464367 -0.28142,0.724854 -0.28294,0.728367 -0.41431,0.83732 -0.0664,0.05509 -0.12702,0.113547 -0.1352,0.130387 -0.046,0.09599 0.20569,0.03248 0.38392,-0.09671 0.0876,-0.06351 0.10417,-0.09238 0.42622,-0.761084 0.31384,-0.651986 0.34249,-0.703948 0.46963,-0.847808 0.23047,-0.260799 0.42679,-0.39862 0.7143,-0.501006 0.30511,-0.108736 0.56302,-0.121246 0.84225,-0.0409 0.61939,0.17826 1.10692,0.78745 0.8976,1.377321 -0.44264,1.247656 -1.5028,1.888552 -2.43033,1.968516 -0.95121,0.08203 -1.75268,-0.264359 -2.31012,-0.802413 -0.0633,-0.0587 -0.1174,-0.113066 -0.14218,-0.138567 l -0.16431,-0.166472 0.0541,0.117637 0.0546,0.118119 -0.13159,-0.170563 c -0.31623,-0.410432 -0.51626,-0.83282 -0.57142,-1.206253 -0.0313,-0.211219 -0.0433,-0.228539 -0.0565,-0.07915 -0.0144,0.153242 -0.0322,0.09911 -0.0308,-0.08949 7e-4,-0.09911 0.0144,-0.272226 0.0332,-0.384644 0.0192,-0.112345 0.0284,-0.204482 0.0248,-0.204241 -0.005,1.44e-4 -0.0248,0.05196 -0.0464,0.11451 -0.0601,0.176336 -0.0669,0.136402 -0.0144,-0.09021 0.0313,-0.137845 0.10488,-0.343218 0.22445,-0.625524 0.012,-0.02887 0.0503,-0.11451 0.084,-0.172727 0.0241,-0.0599 0.0481,-0.119322 0.0755,-0.177539 0.15805,-0.334317 0.38869,-0.640343 0.68391,-0.893781 0.0573,-0.04908 0.12053,-0.09382 0.1874,-0.136161 0.51001,-0.358518 1.00493,-0.514285 1.40891,-0.541734 0.26145,-0.05942 0.15445,-0.02165 0.11668,-0.04763 -0.0366,-0.02478 -0.0192,-0.03007 0.0719,-0.02165 0.13351,0.01203 0.29823,0.0072 0.10248,-0.04884 -0.0363,-0.01203 -0.0409,-0.01684 -0.0241,-0.01684 z m 0.0387,0.299097 c -0.005,1.2e-4 -0.0144,6.26e-4 -0.0217,0.0024 -0.083,0.0096 -0.14025,0.111142 -0.10897,0.191973 0.0144,0.03681 0.0455,0.06616 0.0738,0.06928 0.0272,0.0024 0.0349,1.2e-4 0.0168,-0.0072 -0.0168,-0.0072 -0.0686,-0.04787 -0.0683,-0.09719 2.2e-4,-0.08131 0.0443,-0.09502 0.11379,-0.107534 0.0796,-0.01443 0.0659,-0.05268 -0.005,-0.05124 z m 0.89402,0.218195 c -0.0539,0.0048 -0.10128,0.04186 -0.11596,0.09599 -0.0192,0.06928 0.0371,0.09671 0.10778,0.115232 0.0707,0.01925 0.1299,0.02165 0.14891,-0.04835 0.0192,-0.06928 -0.0241,-0.140251 -0.0941,-0.158774 -0.0144,-0.0048 -0.0313,-0.0048 -0.0464,-0.0048 z m 0.85002,2.322872 c -0.0594,-0.0024 -0.0815,0.05244 -0.0597,0.145543 0.01,0.0421 0.012,0.08925 0.005,0.104647 -0.0144,0.02839 -0.31601,0.109699 -0.35,0.0943 -0.01,-0.0048 -0.0272,-0.06086 -0.0392,-0.125095 -0.0217,-0.120765 -0.0512,-0.170563 -0.0969,-0.16527 -0.0474,0.0048 -0.0589,0.06736 -0.0368,0.197265 0.0257,0.151558 0.0192,0.15685 -0.26489,0.176817 -0.1263,0.0096 -0.19029,0.02622 -0.20424,0.05533 -0.0301,0.06303 0.044,0.08492 0.26549,0.07867 0.10681,-0.0024 0.20376,-8.42e-4 0.21603,0.0048 0.0216,0.0096 0.0342,0.393111 0.0144,0.434681 -0.01,0.02165 -0.40925,0.110421 -0.43689,0.09839 -0.007,-0.0024 -0.031,-0.08011 -0.0517,-0.171043 -0.0217,-0.09647 -0.0558,-0.17369 -0.0806,-0.184997 -0.0611,-0.02815 -0.0741,0.01925 -0.0541,0.205926 0.01,0.09045 0.0144,0.170081 0.012,0.177539 -0.005,0.0072 -0.0755,0.01443 -0.1595,0.01684 -0.1518,0.0024 -0.21314,0.0421 -0.15541,0.100797 0.0168,0.01684 0.0844,0.02983 0.1518,0.02911 0.0674,-8.42e-4 0.1364,0.0048 0.153,0.01203 0.0168,0.0072 0.0291,0.111863 0.0267,0.231666 -0.005,0.254809 -0.005,0.257359 -0.27855,0.271144 -0.19245,0.0096 -0.22469,0.02406 -0.20063,0.08901 0.0168,0.0421 0.0433,0.04691 0.23383,0.04378 0.16551,-0.0024 0.21483,0.0048 0.21242,0.032 -0.002,0.01925 0.005,0.06279 0.0192,0.09647 0.0192,0.05004 0.0334,0.06134 0.0816,0.0587 0.0515,-0.0024 0.064,-0.01684 0.0953,-0.113548 l 0.0356,-0.110661 0.15709,-0.0267 c 0.14314,-0.02406 0.15709,-0.02165 0.15348,0.02165 -0.005,0.06375 0.0443,0.11018 0.11427,0.106571 0.0488,-0.0024 0.0618,-0.01684 0.0876,-0.102482 0.0265,-0.08708 0.0409,-0.102481 0.11547,-0.126298 0.12389,-0.03921 0.16527,-0.07554 0.1619,-0.14025 -0.005,-0.06736 -0.0784,-0.10561 -0.15901,-0.08131 -0.0743,0.02165 -0.0806,0.0024 -0.0618,-0.205445 l 0.0144,-0.16527 0.1405,-0.03897 c 0.0772,-0.02165 0.14843,-0.03536 0.15781,-0.03151 0.01,0.0048 0.0168,0.03753 0.0168,0.07385 -7e-4,0.07361 0.0421,0.124373 0.10897,0.129185 0.0517,0.0024 0.0806,-0.0498 0.10128,-0.184515 0.0144,-0.09527 0.0192,-0.100077 0.13809,-0.143619 0.12846,-0.04715 0.16383,-0.08564 0.13977,-0.150836 -0.0216,-0.06062 -0.0739,-0.07241 -0.17321,-0.03945 -0.0505,0.01684 -0.0931,0.02454 -0.0953,0.01684 -8.7e-4,-0.0072 -0.012,-0.09358 -0.0217,-0.191973 l -0.0192,-0.178742 0.0881,-0.0332 c 0.11499,-0.04354 0.15083,-0.116195 0.0835,-0.169841 -0.0378,-0.03007 -0.0717,-0.03416 -0.13087,-0.01443 -0.0791,0.02526 -0.0813,0.02502 -0.0916,-0.03127 -0.0298,-0.154925 -0.037,-0.171525 -0.0787,-0.174652 h -6e-4 -6e-4 z m -0.0416,0.483565 c 0.005,0.0024 0.0144,0.08179 0.0144,0.174652 3.4e-4,0.09286 -0.005,0.181388 -0.012,0.196784 -0.0144,0.03007 -0.26764,0.112586 -0.30002,0.09767 -0.01,-0.0048 -0.0262,-0.09863 -0.0332,-0.20785 l -0.0144,-0.198468 0.16599,-0.03488 c 0.0914,-0.01925 0.17273,-0.03127 0.17971,-0.02791 z m -0.53216,0.73491 c 0.007,1.2e-4 0.012,8.42e-4 0.0144,0.0024 0.005,0.0096 -8.6e-4,0.09623 -0.012,0.193657 -0.01,0.09743 -0.0217,0.184275 -0.0245,0.192695 -0.005,0.01924 -0.30644,0.09719 -0.33153,0.08564 -0.0241,-0.0096 -0.0483,-0.417842 -0.0267,-0.423014 0.0957,-0.02406 0.32255,-0.05244 0.38094,-0.05124 z"
         sodipodi:nodetypes="ccccccsccccccccccccccccccccccssccsscsccsccccccccsccccscccccsscsccccccccccccscccccccccccccccccccccccccccccccccccccccccccccsccscccccccccccccsccccccsscccccccc" />
    </g>
  </g>
</svg>
