<svg xmlns="http://www.w3.org/2000/svg" width="32" height="32" viewBox="0 0 24 24" fill="white" stroke="none">
  <path d="M22.05 2.507c0.336 0.337 0.461 0.832 0.326 1.29l-4.528 15.313c-0.136 0.461-0.507 0.82-0.971 0.939-0.464 0.119-0.957-0.014-1.293-0.35l-5.12-5.12-3.022 3.022c-0.336 0.336-0.832 0.461-1.289 0.326-0.458-0.136-0.817-0.507-0.936-0.971l-1.578-6.31-4.528-2.264c-0.443-0.222-0.722-0.671-0.722-1.167 0-0.495 0.279-0.945 0.722-1.167l20.555-10.277c0.458-0.229 1.003-0.175 1.414 0.236zM19.449 5.618l-11.29 7.527 1.213 4.852 1.942-1.942c0.391-0.391 1.023-0.391 1.414 0l4.242 4.242 3.479-11.679z"/>
</svg>

