<svg xmlns="http://www.w3.org/2000/svg" viewBox="0 0 2000 2000" width="2000" height="2000">
  <path d="M1000 0c552.26 0 1000 447.74 1000 1000s-447.74 1000-1000 1000S0 1552.26 0 1000 447.74 0 1000 0" fill="#53ae94"/>
  <path d="M1123.42 866.76V718h340.18V491.34H537.28V718H877.5v148.64C601 879.34 393.1 934.1 393.1 999.7s208 120.36 484.4 133.14v476.5h246V1132.8c276-12.74 483.48-67.46 483.48-133.1s-207.48-120.36-483.48-133m0 225.64v-0.12c-6.94.44-47.34 2.24-122.14 2.24-66.98 0-114.78-1.48-123.88-2.24v0.26c-246.4-11.76-430.58-57.64-430.58-112.16s184.18-100.36 430.58-112.16v180.14c9.22.88 57.9 2.84 124.94 2.84 75.86 0 116-2.06 121.68-2.72V868.3c246 11.84 429.78 57.74 429.78 112.2s-183.78 100.32-429.78 112.16" fill="#fff"/>
</svg>

