<?xml version="1.0" encoding="UTF-8" standalone="no"?>
<!-- Created with Inkscape (http://www.inkscape.org/) -->

<svg
   width="6.4587789mm"
   height="6.5426564mm"
   viewBox="0 0 6.4587789 6.5426564"
   version="1.1"
   id="svg1"
   xml:space="preserve"
   xmlns="http://www.w3.org/2000/svg"
   xmlns:svg="http://www.w3.org/2000/svg"><defs
     id="defs1" /><g
     id="layer1"
     transform="translate(-934.77289,-395.02291)"><g
       id="g6-0-5-6-8-7-9"
       transform="matrix(0.66991937,0,0,0.6548932,886.54869,341.8331)"
       style="fill:#003d3a;fill-opacity:1"><path
         style="font-weight:600;font-size:11.6182px;line-height:1.25;font-family:Montserrat;-inkscape-font-specification:'Montserrat Semi-Bold';opacity:0.99;fill:#003d3a;fill-opacity:1;stroke-width:0.607318;stroke-linecap:round;stroke-linejoin:round"
         d="M 71.985117,91.209473 V 89.79661 89.573401 h 0.76662 c 0.19633,0 0.34591,0.03895 0.44876,0.116852 0.10286,0.07638 0.15426,0.179188 0.15426,0.308511 0,0.08727 -0.0203,0.162054 -0.0608,0.224379 -0.0406,0.06074 -0.0951,0.108277 -0.16361,0.14258 -0.067,0.03261 -0.14024,0.04904 -0.21971,0.04904 l 0.0421,-0.08424 c 0.0918,0 0.17454,0.01715 0.24775,0.05145 0.0733,0.03261 0.1309,0.08102 0.17297,0.144902 0.0436,0.06387 0.0654,0.143357 0.0654,0.238396 0,0.140239 -0.0537,0.249311 -0.16128,0.327216 -0.10753,0.0779 -0.26722,0.116853 -0.47913,0.116853 z m 0.30384,-0.238396 h 0.49082 c 0.11371,0 0.20101,-0.01867 0.26178,-0.0561 0.0608,-0.03743 0.0912,-0.09744 0.0912,-0.179955 0,-0.08102 -0.0304,-0.140258 -0.0912,-0.177642 -0.0608,-0.03895 -0.14805,-0.05851 -0.26178,-0.05851 h -0.51418 v -0.236064 h 0.45341 c 0.10601,0 0.18699,-0.01867 0.24307,-0.0561 0.0577,-0.03743 0.0864,-0.09353 0.0864,-0.168281 0,-0.07638 -0.0289,-0.133226 -0.0864,-0.170629 -0.0561,-0.03743 -0.1371,-0.0561 -0.24307,-0.0561 h -0.43005 z m 1.47481,0.238396 v -1.636072 h 1.19434 v 0.25476 h -0.89051 v 1.12656 h 0.92322 v 0.254752 z m 0.28047,-0.705842 v -0.25008 h 0.81336 v 0.25008 z m 1.05411,0.705842 0.73623,-1.636072 h 0.29918 l 0.73856,1.636072 h -0.31788 l -0.63337,-1.474805 h 0.1215 l -0.63105,1.474805 z m 0.3389,-0.378626 0.0819,-0.238404 h 0.88347 l 0.0819,0.238404 z m 2.04041,0.378626 -0.7152,-1.636072 h 0.32957 l 0.63805,1.479485 h -0.1893 l 0.64508,-1.479485 h 0.30384 l -0.71287,1.636072 z m 1.185,0 v -1.636072 h 1.19433 v 0.25476 h -0.89049 v 1.12656 h 0.92321 v 0.254752 z m 0.28047,-0.705842 v -0.25008 h 0.81336 v 0.25008 z m 1.28549,0.705842 v -1.636072 h 0.67079 c 0.21813,0 0.38878,0.05145 0.51184,0.154264 0.12469,0.102855 0.187,0.245417 0.187,0.427721 0,0.119998 -0.0281,0.223594 -0.0842,0.310842 -0.0561,0.08576 -0.13634,0.151924 -0.24075,0.198679 -0.10285,0.04529 -0.22671,0.0678 -0.37161,0.0678 h -0.50486 l 0.13556,-0.137899 v 0.614698 z m 1.07044,0 -0.41368,-0.593661 h 0.32489 l 0.41603,0.593661 z m -0.76661,-0.581977 -0.13555,-0.144902 h 0.49083 c 0.134,0 0.2345,-0.02885 0.3015,-0.08647 0.0685,-0.05762 0.10286,-0.137899 0.10286,-0.240745 0,-0.104364 -0.0343,-0.184645 -0.10286,-0.240735 -0.067,-0.0561 -0.1675,-0.08424 -0.3015,-0.08424 h -0.49083 l 0.13555,-0.149583 z"
         id="path3-1-6-4-2-3-9-2"
         aria-label="BEAVER" /><path
         id="path27-6-5-8-6-8-5-4"
         style="fill:#003d3a;fill-opacity:1;stroke:none;stroke-width:0.161002;stroke-linecap:round;stroke-linejoin:round;stroke-dasharray:none;stroke-opacity:1"
         d="m 76.805707,81.219071 c -1.99962,-8.1e-5 -3.62074,1.62077 -3.621,3.620388 -8e-5,1.999851 1.62114,3.621076 3.621,3.620996 1.99986,8e-5 3.62108,-1.621136 3.621,-3.620996 -2.6e-4,-1.999618 -1.62139,-3.620469 -3.621,-3.620388 z m -0.008,0.548103 h 6e-4 c 0.0529,0 0.30886,0.04315 0.48973,0.09096 0.57538,0.151978 1.23501,0.491352 1.35733,0.726906 0.002,0.0063 0.005,0.0096 0.006,0.01537 0.0247,0.165725 0.0333,0.455843 -0.0417,0.52904 -0.0219,0.02126 -0.12083,0.161866 -0.13272,0.180045 -0.0304,0.04734 -0.0673,0.237662 -0.0768,0.240869 -0.0178,0.0063 -0.12018,0.02117 -0.13088,0.008 -0.0231,-0.02448 0.0177,-0.21835 0.004,-0.21014 -0.0918,0.0536 -0.25331,0.263488 -0.47683,0.298005 -0.0405,0.0063 -0.16465,0.0045 -0.27403,-0.01188 -0.006,0.04359 -0.0149,0.08594 -0.0209,0.123499 -0.004,0.02876 -0.008,0.05306 -0.0122,0.07432 0.13052,0.09465 0.37321,0.05931 0.39878,-0.03564 0.005,-0.01947 0.0561,-0.04592 0.0964,-0.08227 0.0925,-0.08361 0.15929,-0.02555 0.19662,-0.0027 0.0638,0.03948 0.1218,0.152629 0.0859,0.260531 -0.0125,0.03734 -0.13434,-0.0071 -0.22672,0.01474 -0.26445,0.06298 -0.4103,0.131217 -0.55672,0.199706 -0.15673,0.07325 -0.29723,0.209685 -0.38094,0.250089 l -0.13458,0.127795 c -0.28818,-0.106419 -0.56721,-0.205164 -0.8418,0.0027 0.22625,0.03484 0.45755,0.02778 0.63227,0.247632 0.005,0.0071 -0.0556,0.127108 -0.12965,0.261755 -0.074,0.134648 -0.17671,0.355293 -0.22797,0.490342 -0.2905,0.765434 -0.29205,0.769159 -0.42766,0.884198 -0.0686,0.05815 -0.13115,0.119962 -0.13948,0.137649 -0.0474,0.101301 0.21236,0.03439 0.39632,-0.102024 0.0905,-0.06709 0.10761,-0.0975 0.43996,-0.803703 0.32398,-0.688467 0.35355,-0.743351 0.4848,-0.895266 0.23797,-0.275387 0.44057,-0.420914 0.73736,-0.52904 0.31497,-0.114744 0.5812,-0.127929 0.86945,-0.04306 0.63939,0.188317 1.14266,0.831521 0.9266,1.454428 -0.45694,1.317476 -1.55133,1.994268 -2.50882,2.078703 -0.98192,0.08656 -1.80927,-0.279174 -2.38471,-0.847341 -0.0654,-0.06208 -0.12106,-0.119354 -0.14687,-0.146242 l -0.16958,-0.175721 0.0559,0.124106 0.0564,0.124741 -0.13579,-0.180045 c -0.32645,-0.433403 -0.53294,-0.879437 -0.58989,-1.273767 -0.0324,-0.223147 -0.0448,-0.241352 -0.0584,-0.08361 -0.0136,0.161902 -0.0332,0.104641 -0.0319,-0.09464 7.2e-4,-0.104642 0.016,-0.287456 0.0343,-0.406158 0.0188,-0.118666 0.0293,-0.215884 0.0257,-0.215678 -0.004,1.61e-4 -0.0257,0.05485 -0.0479,0.121051 -0.062,0.18611 -0.0691,0.143911 -0.016,-0.09524 0.0323,-0.145465 0.1083,-0.36243 0.23164,-0.660533 0.0126,-0.03046 0.052,-0.120909 0.0867,-0.182502 0.0238,-0.06316 0.0497,-0.125964 0.078,-0.187414 0.16311,-0.353015 0.40126,-0.676184 0.706,-0.943808 0.059,-0.05181 0.12448,-0.09917 0.19357,-0.143777 0.52647,-0.37859 1.03739,-0.543083 1.45442,-0.572061 0.26988,-0.0628 0.15942,-0.02341 0.12042,-0.05038 -0.0378,-0.02617 -0.0206,-0.03171 0.0743,-0.02269 0.1378,0.01304 0.30785,0.0071 0.10569,-0.05163 -0.0376,-0.01233 -0.0423,-0.0184 -0.0246,-0.0184 z m 0.0399,0.315835 c -0.006,1.25e-4 -0.0149,6.7e-4 -0.0232,0.0027 -0.0856,0.01072 -0.14468,0.117362 -0.11249,0.20277 0.0147,0.03877 0.0469,0.06977 0.0763,0.07316 0.028,0.0036 0.0361,1.16e-4 0.0185,-0.0071 -0.0174,-0.0071 -0.0709,-0.05056 -0.0706,-0.102613 2.4e-4,-0.08576 0.0456,-0.100479 0.11736,-0.113673 0.0822,-0.01536 0.0681,-0.05565 -0.004,-0.05413 z m 0.9229,0.230418 c -0.0557,0.0045 -0.10463,0.04422 -0.11981,0.101426 -0.0196,0.07316 0.0382,0.102023 0.11118,0.121658 0.073,0.01965 0.13411,0.02215 0.15361,-0.05101 0.0197,-0.07316 -0.024,-0.148154 -0.097,-0.167753 -0.016,-0.0045 -0.0323,-0.0063 -0.0479,-0.0045 z m 0.87746,2.452907 c -0.0613,-0.0036 -0.0842,0.0553 -0.0615,0.153621 0.0107,0.04457 0.012,0.09418 0.004,0.11059 -0.014,0.02993 -0.32621,0.115924 -0.3613,0.09951 -0.0107,-0.0045 -0.0281,-0.06432 -0.0405,-0.13211 -0.023,-0.127466 -0.053,-0.179974 -0.10013,-0.174507 -0.0488,0.0063 -0.0609,0.0712 -0.038,0.208309 0.0266,0.160071 0.0189,0.165716 -0.27343,0.186789 -0.13039,0.0096 -0.19637,0.02769 -0.21076,0.05833 -0.0311,0.06646 0.0454,0.08954 0.27406,0.08299 0.11021,-0.0036 0.21043,-8.94e-4 0.22304,0.0045 0.0219,0.01072 0.0353,0.415108 0.0147,0.459005 -0.0107,0.02189 -0.42248,0.116647 -0.45101,0.10381 -0.008,-0.0036 -0.032,-0.08468 -0.0535,-0.180652 -0.0227,-0.101908 -0.0575,-0.18343 -0.0831,-0.1954 -0.063,-0.02966 -0.0765,0.02108 -0.0559,0.217509 0.0107,0.0956 0.0159,0.179688 0.0122,0.187424 -0.004,0.0071 -0.078,0.01572 -0.16467,0.01724 -0.15681,0.0027 -0.22007,0.0444 -0.16038,0.106302 0.0169,0.0176 0.0871,0.03162 0.15669,0.03064 0.0696,-8.94e-4 0.1408,0.0045 0.15791,0.01224 0.0169,0.008 0.03,0.118076 0.0276,0.244559 -0.004,0.269089 -0.005,0.271769 -0.28755,0.28633 -0.19876,0.01072 -0.23205,0.02501 -0.20708,0.09405 0.0161,0.0444 0.0448,0.04949 0.24147,0.04618 0.17073,-0.0027 0.22175,0.0045 0.21937,0.03377 -0.002,0.02046 0.006,0.06637 0.0197,0.102015 0.019,0.0527 0.0346,0.06467 0.0841,0.06208 0.0532,-0.0027 0.0661,-0.01796 0.0983,-0.119818 l 0.0368,-0.116764 0.16222,-0.02832 c 0.14783,-0.02537 0.16209,-0.02332 0.15851,0.02215 -0.005,0.06726 0.0457,0.116406 0.11797,0.112484 0.0503,-0.0027 0.0639,-0.01894 0.0903,-0.108206 0.0274,-0.09191 0.0423,-0.108321 0.11921,-0.133334 0.12802,-0.04154 0.1707,-0.07968 0.16713,-0.148082 -0.004,-0.07111 -0.081,-0.111538 -0.16406,-0.08594 -0.0768,0.02358 -0.0833,0.0027 -0.0639,-0.216902 l 0.016,-0.174506 0.14501,-0.04118 c 0.0798,-0.02251 0.15332,-0.03734 0.16282,-0.03314 0.009,0.0045 0.0176,0.03948 0.0172,0.07798 -7.1e-4,0.07763 0.0435,0.131423 0.11249,0.136407 0.0533,0.0036 0.0833,-0.05253 0.1045,-0.194784 0.0148,-0.100711 0.0197,-0.105588 0.14257,-0.151772 0.13251,-0.04985 0.16924,-0.09048 0.1444,-0.159142 -0.0231,-0.06414 -0.0762,-0.07647 -0.17881,-0.04172 -0.0521,0.01751 -0.096,0.02591 -0.0983,0.0184 -8.9e-4,-0.0071 -0.012,-0.09892 -0.0227,-0.20277 l -0.019,-0.18863 0.091,-0.03511 c 0.11878,-0.04592 0.1557,-0.122597 0.0861,-0.179411 -0.0389,-0.03162 -0.074,-0.036 -0.13518,-0.0159 -0.0816,0.02662 -0.084,0.02644 -0.0946,-0.03314 -0.0309,-0.163689 -0.0382,-0.181135 -0.0811,-0.184342 h -6.1e-4 -6.2e-4 z m -0.043,0.510619 c 0.006,0.0027 0.0137,0.08647 0.0141,0.184342 3.5e-4,0.09798 -0.005,0.191613 -0.013,0.207683 -0.0148,0.03171 -0.27628,0.118899 -0.3097,0.103204 -0.0107,-0.0045 -0.0272,-0.104043 -0.0343,-0.219368 l -0.0141,-0.209515 0.17144,-0.03689 c 0.0944,-0.02001 0.17835,-0.03296 0.18557,-0.02948 z m -0.54934,0.776056 c 0.008,1.25e-4 0.0136,8.93e-4 0.0141,0.0027 0.004,0.0096 -9e-4,0.101657 -0.0122,0.20461 -0.0107,0.102971 -0.0228,0.194588 -0.0252,0.203378 -0.006,0.02117 -0.31632,0.102739 -0.34224,0.09037 -0.0242,-0.01072 -0.0499,-0.441237 -0.0277,-0.446704 0.0988,-0.02439 0.33297,-0.0553 0.39325,-0.05413 z" /></g></g></svg>
