<?xml version="1.0" encoding="UTF-8" standalone="no"?>
<!-- Created with Inkscape (http://www.inkscape.org/) -->

<svg
   width="12.358421mm"
   height="10.20168mm"
   viewBox="0 0 12.358421 10.201681"
   version="1.1"
   id="svg1"
   xml:space="preserve"
   xmlns="http://www.w3.org/2000/svg"
   xmlns:svg="http://www.w3.org/2000/svg"><defs
     id="defs1" /><g
     id="layer1"
     transform="translate(-932.89351,-378.07434)"
     style="fill:#000000"><path
       id="path40-5-05-3-5-7-1-6"
       style="opacity:0.420981;mix-blend-mode:multiply;fill:#000000;fill-opacity:1;stroke-width:0.502067"
       d="m 940.9979,378.07486 c -0.22326,0.006 -0.35621,0.3199 -0.4214,0.98883 -0.0812,0.83321 -0.12761,0.84951 -1.61247,0.56415 -0.66205,-0.12725 -1.01506,-0.12434 -1.12752,0.009 -0.24393,0.28973 0.10546,0.50729 1.25338,0.78001 0.55314,0.13142 1.05056,0.27652 1.10529,0.32262 0.0971,0.0818 -0.37851,2.11415 -0.53957,2.30546 -0.0802,0.0952 -2.25993,0.0212 -2.38513,-0.0809 -0.0356,-0.029 -0.047,-0.4677 -0.0253,-0.97475 0.023,-0.53785 -0.0402,-0.98884 -0.15153,-1.0826 -0.27572,-0.23213 -0.4083,0.004 -0.56838,1.00966 -0.0779,0.48955 -0.16474,0.91753 -0.193,0.95111 -0.0283,0.0335 -0.40674,-0.0274 -0.84106,-0.13541 -0.78734,-0.19585 -1.15766,-0.0714 -0.94313,0.31698 0.0607,0.11003 0.39525,0.27205 0.74338,0.36004 0.34813,0.088 0.6938,0.21119 0.76812,0.27378 0.0743,0.0626 -0.0104,0.62735 -0.18847,1.25509 -0.37882,1.33567 -0.39273,1.34354 -1.81455,1.04034 -1.00895,-0.21514 -1.192,-0.18463 -1.15962,0.19254 0.0208,0.24195 0.15829,0.30859 1.1424,0.55429 0.85444,0.21334 1.10239,0.32201 1.04957,0.4599 -0.0381,0.0993 -0.0555,0.34045 -0.0387,0.53583 0.0247,0.28846 0.0885,0.36748 0.33905,0.42045 0.26925,0.0569 0.35179,-0.003 0.64837,-0.46742 l 0.33984,-0.53269 0.84623,0.0773 c 0.76659,0.0701 0.83798,0.1003 0.75841,0.32137 -0.11802,0.32793 0.0739,0.64257 0.43892,0.71975 0.25392,0.0537 0.3435,-0.009 0.59485,-0.41842 0.25886,-0.42136 0.35553,-0.48474 0.77234,-0.50655 0.69272,-0.0362 0.95668,-0.16792 1.02984,-0.5139 0.076,-0.35935 -0.25506,-0.66458 -0.70347,-0.64853 -0.41581,0.0149 -0.41868,-0.10108 -0.0297,-1.16603 l 0.31009,-0.84936 0.77705,-0.01 c 0.42738,-0.006 0.81346,0.0181 0.85797,0.0527 0.0445,0.0346 0.0373,0.22 -0.0163,0.41184 -0.1078,0.3861 0.0402,0.71067 0.3774,0.82745 0.26055,0.0902 0.48772,-0.15125 0.78253,-0.83198 0.20879,-0.48215 0.23485,-0.49834 0.90915,-0.56432 0.7272,-0.0711 0.96514,-0.224 0.93295,-0.59906 -0.0301,-0.35023 -0.27863,-0.48322 -0.83605,-0.44737 -0.28215,0.0181 -0.51231,5.6e-4 -0.5114,-0.0398 7.2e-4,-0.04 0.072,-0.50762 0.15809,-1.03908 l 0.15654,-0.96629 0.4995,-0.0537 c 0.65351,-0.0702 0.93882,-0.40364 0.66732,-0.77986 -0.15118,-0.20947 -0.32241,-0.27743 -0.65354,-0.25938 -0.44038,0.024 -0.44808,0.0186 -0.42437,-0.29272 0.0655,-0.85947 0.0505,-0.95465 -0.1617,-1.02812 -0.29723,-0.10294 -0.49592,0.1613 -0.51328,0.6828 -0.008,0.23622 -0.0636,0.48809 -0.12382,0.55962 -0.11,0.13067 -1.78005,0.14243 -1.93305,0.0136 -0.045,-0.0379 -0.0576,-0.35862 -0.0281,-0.71287 0.0553,-0.66595 -0.0252,-0.9672 -0.26798,-1.00292 -0.0157,-0.003 -0.031,-0.003 -0.0459,-0.003 z m 0.14339,2.80261 0.9032,0.0479 c 0.49679,0.0263 0.93013,0.0706 0.96285,0.0982 0.0327,0.0276 -0.046,0.44966 -0.17484,0.93811 -0.12885,0.48845 -0.28236,0.94537 -0.34125,1.01545 -0.11669,0.13875 -1.53543,0.22636 -1.68104,0.10378 -0.0494,-0.0416 0.005,-0.55426 0.12069,-1.13942 z m -3.93813,3.02536 c 0.59968,0.012 2.09462,0.21678 2.10071,0.28771 0.004,0.0517 -0.14747,0.50228 -0.33749,1.00152 -0.19002,0.49923 -0.36738,0.94068 -0.39416,0.98085 -0.0639,0.096 -1.71683,0.0906 -1.82927,-0.006 -0.10108,-0.0868 0.34198,-2.26655 0.46021,-2.26413 z"
       mask="none" /></g></svg>
